<?xml version="1.0" encoding="UTF-8"?>
<!-- Generated by Pixelmator Pro 3.7.1 -->
<svg width="600" height="170" viewBox="0 0 600 170" xmlns="http://www.w3.org/2000/svg">
    <path id="Path" fill="#ffffff" stroke="none" d="M 325 35 C 325 38.300003 325 41.600006 325 45 C 325.959991 44.529999 326.910004 44.059998 327.890015 43.57 C 340.01001 37.699997 352.130005 32.199997 365.75 36.190002 C 371.769989 38.490005 375.580017 41.619995 378.309998 47.5 C 380.440002 52.599998 381.119995 57.370003 381.190002 62.879997 C 381.209991 64.029999 381.220001 65.190002 381.23999 66.379997 C 381.25 67.619995 381.269989 68.860001 381.279999 70.139999 C 381.299988 71.419998 381.320007 72.699997 381.339996 74.009995 C 381.410004 78.790001 381.470001 83.559998 381.529999 88.339996 C 381.580017 93.020004 381.649994 97.709999 381.720001 102.389999 C 381.730011 103.639999 381.75 104.889999 381.76001 106.169998 C 381.779999 107.32 381.790009 108.459999 381.809998 109.639999 C 381.820007 110.650002 381.839996 111.669998 381.850006 112.709999 C 381.75 114.959999 381.75 114.959999 383 116 C 384.679993 116.389999 386.369995 116.739998 388.059998 117.059998 C 388.980011 117.239998 389.899994 117.419998 390.850006 117.599998 C 391.559998 117.730003 392.269989 117.860001 393 118 C 393 120.970001 393 123.940002 393 127 C 377.820007 127 362.640015 127 347 127 C 347 124.029999 347 121.059998 347 118 C 347.640015 117.870003 348.279999 117.730003 348.929993 117.599998 C 349.76001 117.419998 350.589996 117.239998 351.440002 117.059998 C 352.670013 116.800003 352.670013 116.800003 353.929993 116.540001 C 355.980011 116.190002 355.980011 116.190002 357 115 C 357.109985 113.540001 357.149994 112.080002 357.160004 110.620003 C 357.169983 109.690002 357.179993 108.760002 357.190002 107.800003 C 357.190002 106.779999 357.200012 105.769997 357.200012 104.720001 C 357.209991 103.68 357.209991 102.629997 357.220001 101.559998 C 357.230011 99.339996 357.23999 97.130005 357.23999 94.910004 C 357.25 91.540001 357.279999 88.169998 357.309998 84.800003 C 357.320007 82.650002 357.320007 80.5 357.330017 78.339996 C 357.350006 76.839996 357.350006 76.839996 357.369995 75.309998 C 357.339996 68.099998 356.630005 61.290001 352 55.5 C 348.73999 53.059998 345.950012 52.839996 342 52.809998 C 341.130005 52.800003 340.269989 52.779999 339.380005 52.770004 C 334.540009 53.099998 329.769989 54.129997 325 55 C 325.329987 74.800003 325.660004 94.599998 326 115 C 328.309998 115.660004 330.619995 116.32 333 117 C 333.98999 117.330002 334.980011 117.660004 336 118 C 336 120.970001 336 123.940002 336 127 C 320.820007 127 305.640015 127 290 127 C 290 124.029999 290 121.059998 290 118 C 290.640015 117.870003 291.279999 117.730003 291.929993 117.599998 C 293.170013 117.330002 293.170013 117.330002 294.440002 117.059998 C 295.670013 116.800003 295.670013 116.800003 296.929993 116.540001 C 298.980011 116.190002 298.980011 116.190002 300 115 C 300.119995 113.040001 300.179993 111.07 300.209991 109.099998 C 300.230011 107.839996 300.25 106.580002 300.269989 105.279999 C 300.279999 103.889999 300.299988 102.510002 300.320007 101.120003 C 300.339996 99.709999 300.359985 98.300003 300.380005 96.889999 C 300.429993 93.169998 300.480011 89.449997 300.529999 85.729996 C 300.579987 81.93 300.640015 78.139999 300.690002 74.349998 C 300.799988 66.900002 300.899994 59.449997 301 52 C 297.040009 52 293.079987 52 289 52 C 289 49.360001 289 46.720001 289 44 C 293.119995 42.470001 297.23999 40.979996 301.380005 39.5 C 302.529999 39.070007 303.690002 38.639999 304.880005 38.199997 C 311.920013 35.690002 317.529999 34.490005 325 35 Z"/>
    <path id="path1" fill="#ffffff" stroke="none" d="M 3 4 C 37.98 4 72.959999 4 109 4 C 109 14.889999 109 25.779999 109 37 C 104.709999 37 100.419998 37 96 37 C 95.720001 35.570007 95.449997 34.139999 95.160004 32.660004 C 94.790001 30.790009 94.43 28.929993 94.059998 27.059998 C 93.790001 25.639999 93.790001 25.639999 93.510002 24.199997 C 93.330002 23.300003 93.160004 22.399994 92.970001 21.470001 C 92.730003 20.220001 92.730003 20.220001 92.480003 18.949997 C 92.18 17.009995 92.18 17.009995 91 16 C 89.370003 15.839996 87.730003 15.75 86.089996 15.679993 C 85.099998 15.639999 84.110001 15.600006 83.089996 15.559998 C 82.050003 15.520004 81.010002 15.479996 79.940002 15.440002 C 78.889999 15.389999 77.849998 15.350006 76.769997 15.309998 C 74.18 15.199997 71.589996 15.100006 69 15 C 69.080002 27.740005 69.18 40.490005 69.290001 53.229996 C 69.339996 59.150002 69.379997 65.059998 69.419998 70.980003 C 69.459999 76.68 69.5 82.389999 69.559998 88.099998 C 69.580002 90.279999 69.589996 92.459999 69.599998 94.639999 C 69.620003 97.690002 69.650002 100.730003 69.68 103.779999 C 69.68 104.690002 69.690002 105.599998 69.690002 106.529999 C 69.519997 111.25 69.519997 111.25 72 115 C 74.889999 115.68 74.889999 115.68 78.120003 116.120003 C 79.220001 116.290001 80.32 116.459999 81.449997 116.629997 C 82.709999 116.809998 82.709999 116.809998 84 117 C 84 120.300003 84 123.599998 84 127 C 65.849998 127 47.700001 127 29 127 C 29 123.699997 29 120.400002 29 117 C 29.84 116.879997 30.690001 116.760002 31.549999 116.629997 C 32.650002 116.470001 33.75 116.300003 34.879997 116.120003 C 35.970001 115.959999 37.060001 115.800003 38.18 115.629997 C 41.119999 115.239998 41.119999 115.239998 43 113 C 43.220001 109.900002 43.310001 106.879997 43.32 103.779999 C 43.330002 102.339996 43.330002 102.339996 43.349998 100.879997 C 43.380001 97.709999 43.400002 94.540001 43.41 91.370003 C 43.43 89.169998 43.450001 86.980003 43.470001 84.779999 C 43.52 79 43.560001 73.220001 43.599998 67.43 C 43.639999 61.540001 43.689999 55.639999 43.740002 49.740005 C 43.84 38.160004 43.919998 26.580002 44 15 C 36.740002 15.330002 29.48 15.660004 22 16 C 20.68 19.309998 19.75 21.639999 19.15 24.990005 C 19.02 25.690002 18.889999 26.399994 18.76 27.130005 C 18.630001 27.850006 18.51 28.570007 18.380001 29.309998 C 18.24 30.050003 18.110001 30.790009 17.970001 31.559998 C 17.639999 33.369995 17.32 35.190002 17 37 C 12.38 37 7.76 37 3 37 C 3 26.110001 3 15.220001 3 4 Z"/>
    <path id="path2" fill="#ffffff" stroke="none" d="M 475 37 C 490.51001 37 506.019989 37 522 37 C 522 39.970001 522 42.940002 522 46 C 521.359985 46.120003 520.719971 46.239998 520.070007 46.370003 C 519.23999 46.529999 518.409973 46.699997 517.559998 46.879997 C 516.73999 47.040001 515.919983 47.199997 515.070007 47.370003 C 514.380005 47.580002 513.700012 47.779999 513 48 C 511.73999 49.949997 511.73999 49.949997 512.559998 52.020004 C 512.890015 52.860001 513.210022 53.690002 513.539978 54.540001 C 513.900024 55.479996 514.26001 56.419998 514.630005 57.389999 C 515.030029 58.410004 515.429993 59.43 515.840027 60.479996 C 516.23999 61.520004 516.640015 62.559998 517.049988 63.629997 C 518.340027 66.959999 519.640015 70.290001 520.940002 73.619995 C 521.809998 75.880005 522.679993 78.139999 523.549988 80.389999 C 525.690002 85.93 527.840027 91.470001 530 97 C 532.960022 90.610001 535.809998 84.209999 538.330017 77.630005 C 538.75 76.529999 538.75 76.529999 539.179993 75.419998 C 539.77002 73.900002 540.349976 72.380005 540.929993 70.860001 C 541.820007 68.540001 542.719971 66.220001 543.619995 63.900002 C 544.190002 62.410004 544.76001 60.93 545.330017 59.440002 C 545.599976 58.75 545.869995 58.059998 546.150024 57.349998 C 547.429993 53.970001 548 51.68 548 48 C 543.049988 47.010002 543.049988 47.010002 538 46 C 538 43.029999 538 40.059998 538 37 C 549.880005 37 561.76001 37 574 37 C 574 39.970001 574 42.940002 574 46 C 570.700012 46.660004 567.400024 47.32 564 48 C 563.640015 49.32 563.289978 50.629997 562.919983 51.989998 C 560.619995 59.610001 557.419983 66.870003 554.309998 74.190002 C 552.960022 77.389999 551.619995 80.599998 550.27002 83.800003 C 549.919983 84.630005 549.570007 85.449997 549.219971 86.309998 C 546.669983 92.369995 544.169983 98.449997 541.700012 104.540001 C 541.349976 105.410004 540.98999 106.279999 540.630005 107.169998 C 538.570007 112.25 538.570007 112.25 536.51001 117.330002 C 520.830017 156.220001 520.830017 156.220001 504.929993 165.160004 C 499.640015 167.389999 494.369995 168.089996 488.859985 166.309998 C 484.079987 164.190002 481.209991 161.880005 479 157 C 478.269989 153.800003 478.179993 151.190002 479 148 C 481.619995 143.860001 484.299988 140.570007 489 139 C 490.720001 139.800003 490.720001 139.800003 492.570007 141.089996 C 493.23999 141.540009 493.910004 142 494.600006 142.470001 C 495.290009 142.949997 495.980011 143.440002 496.690002 143.940002 C 497.390015 144.419998 498.089996 144.899994 498.809998 145.399994 C 500.549988 146.589996 502.279999 147.790009 504 149 C 508.619995 145.809998 510.839996 142.419998 513.380005 137.559998 C 513.73999 136.910004 514.109985 136.25 514.48999 135.580002 C 516.659973 131.48999 517.200012 129.399994 516 125 C 515.440002 123.370003 514.840027 121.75 514.210022 120.150002 C 513.840027 119.209999 513.469971 118.269997 513.090027 117.300003 C 512.690002 116.290001 512.289978 115.279999 511.880005 114.230003 C 511.25 112.639999 511.25 112.639999 510.609985 111.010002 C 509.26001 107.589996 507.910004 104.169998 506.559998 100.75 C 505.25 97.419998 503.940002 94.089996 502.630005 90.75 C 501.75 88.529999 500.869995 86.309998 499.980011 84.089996 C 497.690002 78.380005 495.51001 72.669998 493.5 66.860001 C 492.869995 65.129997 492.869995 65.129997 492.23999 63.379997 C 491.450012 61.190002 490.700012 59 489.98999 56.790001 C 487.940002 51.110001 487.940002 51.110001 483.23999 47.660004 C 480.480011 46.889999 477.829987 46.339996 475 46 C 475 43.029999 475 40.059998 475 37 Z"/>
    <path id="path3" fill="#ffffff" stroke="none" d="M 262 39 C 270.720001 45.029999 274.880005 51.940002 278.309998 61.75 C 279.279999 67.760002 279 73.910004 279 80 C 259.529999 80 240.059998 80 220 80 C 221.300003 91.970001 221.300003 91.970001 226 102 C 226.580002 102.910004 227.160004 103.809998 227.75 104.75 C 234.020004 111.019997 241.919998 112.330002 250.460007 112.389999 C 260.820007 112.199997 269.98999 107.870003 279 103 C 279 107.949997 279 112.900002 279 118 C 262.149994 126.93 244.119995 132.369995 225 127 C 211.929993 121.849998 204.320007 115.349998 198.449997 102.479996 C 193.160004 89.75 193.51001 74.949997 198 62 C 203.440002 49.93 211.679993 41.860001 224 37 C 235.580002 33.020004 251.130005 33.050003 262 39 Z M 225.25 52.879997 C 221.149994 58.57 220.889999 62.889999 220 70 C 231.220001 70 242.440002 70 254 70 C 254.270004 59.400002 254.270004 59.400002 249.539993 50.360001 C 245.050003 46.540001 242.040009 45.639999 236.309998 45.720001 C 231.339996 46.32 228.570007 49.400002 225.25 52.879997 Z"/>
    <path id="path4" fill="#ffffff" stroke="none" d="M 170.875 42.25 C 179.294998 49.32 183.054993 59.199997 183.994995 70 C 183.994995 73.300003 183.994995 76.599998 183.994995 80 C 164.195007 80 144.404999 80 123.994995 80 C 125.974998 91.830002 127.794998 102.059998 137.824997 109.32 C 145.735001 113.629997 155.794998 113.120003 164.384995 111.269997 C 170.054993 109.489998 175.184998 107.040001 180.255005 103.949997 C 181.994995 103 181.994995 103 183.994995 103 C 183.994995 107.949997 183.994995 112.900002 183.994995 118 C 165.794998 127.769997 147.604996 131.669998 127.324997 126.290001 C 117.755005 123.040001 109.285004 115.169998 104.555 106.279999 C 103.934998 104.900002 103.934998 104.900002 103.315002 103.5 C 102.894997 102.580002 102.474998 101.660004 102.055 100.720001 C 97.595001 89.190002 98.514999 73.199997 102.735001 61.729996 C 104.724998 57.419998 107.014999 53.68 109.994995 50 C 110.474998 49.389999 110.955002 48.769997 111.445 48.139999 C 125.775002 31.839996 153.714996 30 170.875 42.25 Z M 129.755005 52.129997 C 126.305 57.779999 124.994995 63.419998 124.994995 70 C 136.214996 70 147.434998 70 158.994995 70 C 158.274994 57.040001 158.274994 57.040001 151.315002 47.5 C 142.925003 43.699997 136.255005 45.980003 129.755005 52.129997 Z"/>
    <path id="path5" fill="#ffffff" stroke="none" d="M 467 39 C 467 47.580002 467 56.160004 467 65 C 463.040009 65 459.079987 65 455 65 C 454.910004 64.020004 454.829987 63.050003 454.73999 62.040001 C 454.600006 60.770004 454.459991 59.5 454.309998 58.190002 C 454.179993 56.919998 454.059998 55.660004 453.929993 54.360001 C 453.320007 50.879997 453.320007 50.879997 450.670013 49.110001 C 444.339996 46.470001 438.100006 45.93 431.559998 48.190002 C 428.549988 50.32 427.75 51.410004 427 55 C 427.080017 58.639999 427.549988 60.440002 429.830017 63.300003 C 434.830017 68.089996 441.720001 70.760002 447.829987 73.830002 C 457.130005 78.669998 465.709991 84.089996 470 94 C 471.5 103.120003 468.790009 110.769997 463.809998 118.309998 C 454.410004 127.290001 442.640015 129.429993 430.070007 129.360001 C 420.529999 129.110001 411.23999 127.309998 402 125 C 402 115.43 402 105.860001 402 96 C 405.959991 96 409.919983 96 414 96 C 414.220001 97.790001 414.220001 97.790001 414.450012 99.610001 C 414.669983 101.18 414.899994 102.75 415.119995 104.309998 C 415.220001 105.099998 415.309998 105.879997 415.410004 106.690002 C 415.75 108.949997 416.119995 110.889999 417 113 C 423.01001 117.050003 429.899994 117.699997 437 117 C 441.089996 115.480003 444.059998 114 446 110 C 446.690002 104.419998 446.690002 104.419998 444.410004 99.490005 C 441.589996 96.580002 438.579987 94.849998 435 93.059998 C 434.339996 92.720001 433.679993 92.380005 432.98999 92.020004 C 429.910004 90.43 426.809998 88.910004 423.660004 87.43 C 415.600006 83.630005 408.799988 79.410004 403.940002 71.75 C 401.809998 63.260002 402.049988 55.870003 406.459991 48.190002 C 419.669983 29.410004 448.040009 33.279999 467 39 Z"/>
    <path id="path6" fill="#ffffff" stroke="none" d="M 593 16 C 596.119995 18.649994 597.210022 21.009995 597.940002 24.940002 C 598.25 29.029999 597.340027 31.559998 595 35 C 592.090027 38.259995 589.830017 39.300003 585.559998 39.559998 C 580.5 39.330002 578.380005 37.709991 575 34 C 572.719971 30.330002 572.72998 27.089996 573.390015 22.929993 C 574.679993 18.820007 577.77002 16.789993 581.25 14.559998 C 585.460022 13.699997 589.02002 14.440002 593 16 Z M 579 20 C 582.630005 20.330002 586.26001 20.660004 590 21 C 589.929993 22.990005 589.869995 24.970001 589.799988 26.960007 C 589.869995 29.309998 589.869995 29.309998 592 32 C 592.659973 32 593.320007 32 594 32 C 595.549988 28.899994 595.289978 26.419998 595 23 C 593.200012 20.25 591.950012 18.470001 589 17 C 583.330017 16.470001 583.330017 16.470001 579 20 Z M 578 20 C 575.909973 23.399994 575.580017 26.039993 576 30 C 577.380005 31.880005 577.380005 31.880005 579 33 C 579.659973 32.669998 580.320007 32.339996 581 32 C 581 28.699997 581 25.399994 581 22 C 580.340027 22 579.679993 22 579 22 C 578.669983 21.339996 578.340027 20.679993 578 20 Z M 584 22 C 584 23.320007 584 24.639999 584 26 C 584.98999 25.669998 585.97998 25.339996 587 25 C 586.669983 24.009995 586.340027 23.020004 586 22 C 585.340027 22 584.679993 22 584 22 Z M 584 28 C 584 29.320007 584 30.639999 584 32 C 584.659973 32 585.320007 32 586 32 C 586 32.660004 586 33.320007 586 34 C 584.02002 34 582.039978 34 580 34 C 581.039978 35.709991 581.039978 35.709991 583 37 C 586.609985 36.919998 586.609985 36.919998 590 36 C 590.330017 35.339996 590.659973 34.679993 591 34 C 590.01001 34 589.02002 34 588 34 C 587.710022 33.199997 587.419983 32.389999 587.119995 31.559998 C 586.27002 28.869995 586.27002 28.869995 584 28 Z"/>
</svg>
