<?xml version="1.0" encoding="UTF-8"?>
<!-- Generated by Pixelmator Pro 3.7.1 -->
<svg width="800" height="800" viewBox="0 0 800 800" xmlns="http://www.w3.org/2000/svg">
    <g id="Group">
        <path id="Path" fill="#ffffff" stroke="none" d="M 593.609375 588.146851 C 542.709351 588.146851 499.190643 570.984375 460.890594 535.881226 C 437.231232 514.203125 417.725006 487.643738 399.778107 460.028137 C 381.834381 487.643738 362.325012 514.203125 338.668762 535.881226 C 297.515625 573.596863 250.334381 590.603149 194.453125 587.862488 C 87.887497 587.400024 1.334375 503.300018 1.334375 399.993744 C 1.334375 296.403137 88.362503 212.125 195.334381 212.125 C 253.871872 212.125 303.15625 231.496887 345.990631 271.34375 C 366.565643 290.484375 383.934387 312.6875 399.778107 335.918762 C 415.621887 312.6875 432.993774 290.484375 453.565613 271.34375 C 496.399994 231.496887 545.684387 212.125 604.221863 212.125 C 711.196899 212.125 798.221924 296.403137 798.221924 399.993744 C 798.221924 503.300018 711.671875 587.400024 605.103149 587.862488 C 601.231262 588.053101 597.396851 588.146851 593.609375 588.146851 L 593.609375 588.146851 Z M 438.75 397.487518 C 459.981262 431.934357 480.587494 463.996887 505.6875 486.996887 C 534.018738 512.962524 563.881226 523.643738 602.484375 521.603149 L 604.221863 521.556274 C 674.631226 521.556274 731.915649 467.024994 731.915649 399.993744 C 731.915649 332.965637 674.631226 278.431274 604.221863 278.431274 C 562.65625 278.431274 529.134399 291.606262 498.728119 319.890625 C 476.018738 341.018738 457.268738 368.087524 438.75 397.487518 L 438.75 397.487518 Z M 195.334381 278.431274 C 124.925003 278.431274 67.640625 332.965637 67.640625 399.993744 C 67.640625 467.024994 124.925003 521.556274 195.334381 521.556274 L 197.074997 521.603149 C 235.681244 523.643738 265.537506 512.962524 293.868744 486.996887 C 318.96875 463.996887 339.578125 431.934357 360.806244 397.487518 C 342.287506 368.087524 323.537506 341.018738 300.831238 319.890625 C 270.421875 291.606262 236.899994 278.431274 195.334381 278.431274 L 195.334381 278.431274 Z"/>
        <path id="path1" fill="#ffffff" stroke="none" d="M 612.990662 375.896881 L 612.990662 339.940613 L 575.565674 339.940613 L 575.565674 375.896881 L 539.612488 375.896881 L 539.612488 413.140625 L 575.565674 413.140625 L 575.565674 449.362488 L 612.990662 449.362488 L 612.990662 413.140625 L 648.946899 413.140625 L 648.946899 375.896881 L 612.990662 375.896881"/>
        <path id="path2" fill="#ffffff" stroke="none" d="M 141.496872 375.446869 L 259.674988 375.446869 L 259.674988 413.859375 L 141.496872 413.859375 L 141.496872 375.446869 Z"/>
    </g>
</svg>
