<?xml version="1.0" encoding="UTF-8"?>
<!-- Generated by Pixelmator Pro 3.7.1 -->
<svg width="180" height="180" viewBox="0 0 180 180" xmlns="http://www.w3.org/2000/svg">
    <g id="Group">
        <g id="g1">
            <path id="Path" fill="#ffffff" stroke="none" d="M 65.099998 125.300003 C 65.099998 130.800003 60.599998 135.300003 55.099998 135.300003 C 49.600002 135.300003 45.100002 130.800003 45.100002 125.300003 C 45.100002 119.800003 49.600002 115.300003 55.099998 115.300003 C 60.599998 115.300003 65.099998 119.800003 65.099998 125.300003"/>
            <path id="path1" fill="#ffffff" stroke="none" d="M 152.800003 114.900002 C 146.399994 69.199997 110.099998 33 64.5 26.5 C 59.200001 29.300003 54.299999 32.899994 49.900002 37 L 49.900002 46.699997 C 95.5 46.699997 132.5 83.800003 132.5 129.300003 L 142.199997 129.300003 C 146.399994 125.099998 150 120.199997 152.800003 114.900002"/>
            <path id="path2" fill="#ffffff" stroke="none" d="M 160.300003 84.400002 C 160.300003 48.300003 131.100006 19 95 19 C 92.699997 19 90.5 19.100006 88.300003 19.399994 L 86.800003 23.699997 C 118.900002 34.899994 144.400009 60.400002 155.699997 92.5 L 160 91 C 160.199997 88.800003 160.300003 86.599998 160.300003 84.400002"/>
            <path id="path3" fill="#ffffff" stroke="none" d="M 95.699997 162 C 74.900002 162 55.400002 153.899994 40.799999 139.199997 C 26.1 124.599998 18 105.099998 18 84.300003 C 18 63.5 26.1 44 40.799999 29.300003 L 44.900002 33.5 C 31.299999 47.100006 23.9 65.099998 23.9 84.300003 C 23.9 103.5 31.4 121.5 44.900002 135.100006 C 58.5 148.699997 76.5 156.100006 95.699997 156.100006 C 114.900002 156.100006 132.899994 148.600006 146.5 135.100006 L 150.699997 139.199997 C 136 153.899994 116.5 162 95.699997 162"/>
            <path id="path4" fill="#ffffff" stroke="none" d="M 94.900002 133.899994 C 96.5 117.699997 89.300003 102.599998 77.200005 93.400002 C 70.800003 88.599998 63 85.300003 54.5 84.5 C 52.299999 84.300003 50.599998 82.300003 50.900002 80.099998 C 51.200001 77.699997 53.200001 76.199997 55.299999 76.5 C 64.599998 77.400002 73.099998 80.699997 80.200005 85.699997 C 95.599998 96.400002 105 114.900002 103 134.800003 C 102.699997 138 102.099998 141 101.199997 144 L 113 147.300003 C 116.5 146.300003 120 145 123.199997 143.5 C 124 139 124.5 134.300003 124.5 129.5 C 124.5 92.099998 96.900002 61.099998 60.900002 55.800003 C 56.599998 55.199997 52.200001 55.099998 49 55.900002 C 43.900002 57.199997 39.5 60 36.100002 63.800003 C 32.100002 68.300003 29.800001 74.199997 29.800001 80.599998 C 29.800001 92 37.200001 101.599998 47.5 104.900002 C 49.400002 105.5 52.400002 105.800003 53.900002 106 L 54 106 C 65.200005 107.900002 73.800003 117.800003 73.800003 129.5 C 73.800003 134.199997 72.400002 138.600006 70 142.399994 L 78.200005 147.600006 C 82.099998 148.600006 86.199997 149.300003 90.400002 149.600006 C 92.699997 144.800003 94.300003 139.5 94.900002 133.899994"/>
        </g>
    </g>
</svg>
