<?xml version="1.0" encoding="UTF-8"?>
<!-- Generated by Pixelmator Pro 3.7.1 -->
<svg width="800" height="800" viewBox="0 0 800 800" xmlns="http://www.w3.org/2000/svg">
    <path id="Path" fill="#ffffff" stroke="none" d="M 609.960938 370.019531 L 604.980469 362.5 C 604.980469 302.539093 577.539063 279.980469 547.460938 262.5 C 557.519531 259.960938 567.480469 257.519531 570.019531 245.019531 C 587.5 240.039063 590.039063 232.519531 592.480469 225 C 597.460938 222.460938 609.960938 215.039063 609.960938 200 C 617.480469 195.019531 622.460938 187.5 620.019531 177.539063 C 627.539063 167.480469 629.980469 159.960938 627.539063 152.539063 C 637.5 140.039063 632.519531 132.519531 629.980469 125 C 637.5 109.960938 629.980469 95.019531 609.960938 97.460938 C 602.539063 84.960938 582.519531 87.5 579.980469 87.5 C 577.539063 82.519531 572.460938 79.980469 559.960938 82.519531 C 547.460938 75 537.5 75 527.539063 79.980469 C 515.039063 70.019531 507.519531 77.539063 500 79.980469 C 484.960938 75 482.519531 82.519531 475 84.960938 C 459.960938 82.519531 454.980469 90.039063 447.460938 97.460938 L 440.039063 97.460938 C 417.480469 109.960938 404.980469 140.039063 400 152.539063 C 395.019531 137.5 384.960968 109.960938 359.960968 97.460938 L 352.539093 97.460938 C 345.019531 90.039063 340.039093 82.519531 325 84.960938 C 317.480469 82.519531 315.039093 75 300 79.980469 C 295.019531 77.539063 290.039093 75 282.519531 75 C 279.980469 75 277.539093 77.539063 272.460968 79.980469 C 262.5 75 252.539093 75 245.019531 82.519531 C 232.519531 79.980469 227.539093 84.960938 225 87.5 C 222.460968 87.5 202.539093 84.960938 195.019516 97.460938 C 172.460953 95.019531 165.039078 109.960938 172.460953 125 C 167.480484 132.519531 165.039078 137.5 175 152.539063 C 170.019516 157.519531 172.460953 167.480469 182.519516 175 C 179.980484 184.960938 182.519516 192.480469 192.480484 200 C 190.039078 212.5 204.980469 220.019531 207.519531 225 C 209.960968 232.519531 212.5 240.039063 229.980469 245.019531 C 232.519531 257.519531 242.480469 259.960938 252.539093 262.5 C 220.019531 279.980469 195.019516 304.980469 195.019516 362.5 L 190.039078 370.019531 C 154.980484 392.480469 122.460953 462.5 172.460953 520.019531 C 175 537.5 179.980484 550 184.960953 565.039063 C 192.480484 622.460938 240.039093 650 252.539093 652.539063 C 270.019531 667.480469 290.039093 679.980469 317.480469 690.039063 C 342.480469 715.039063 370.019531 725 397.460968 725 C 425 725 452.539063 715.039063 477.539063 690.039063 C 504.980469 679.980469 525 667.480469 542.480469 652.539063 C 554.980469 650 602.539063 622.460938 609.960938 565.039063 C 615.039063 550 620.019531 537.5 625 520.019531 C 679.980469 462.5 647.460938 392.480469 609.960938 370.019531 Z M 577.539063 359.960968 C 575 384.960968 454.980469 277.539063 475 275 C 532.519531 265.039063 579.980469 297.460968 577.539063 359.960968 Z M 445.019531 112.5 C 445.019531 117.480469 447.460938 120.019531 447.460938 122.460938 C 454.980469 115.039063 459.960938 107.519531 467.480469 100 C 467.480469 104.980469 465.039063 107.519531 470.019531 112.5 C 475 104.980469 479.980469 100 490.039063 95.019531 C 484.960938 102.539063 490.039063 104.980469 492.480469 107.519531 C 500 102.539063 504.980469 97.460938 517.480469 92.480469 C 515.039063 97.460938 509.960938 100 515.039063 104.980469 C 522.460938 100 527.539063 97.460938 545.019531 92.480469 C 542.480469 97.460938 534.960938 100 537.5 104.980469 C 545.019531 102.539063 554.980469 100 565.039063 97.460938 C 559.960938 102.539063 554.980469 104.980469 559.960938 107.519531 C 570.019531 104.980469 579.980469 100 592.480469 104.980469 L 584.960938 112.5 C 584.960938 112.5 602.539063 112.5 615.039063 112.5 C 609.960938 120.019531 604.980469 125 602.539063 134.960938 C 602.539063 134.960938 609.960938 134.960938 615.039063 134.960938 C 609.960938 150 600 152.539063 597.460938 157.519531 C 600 159.960938 604.980469 159.960938 612.5 157.519531 C 607.519531 167.480469 600 172.460938 592.480469 179.980469 C 595.019531 182.519531 597.460938 182.519531 604.980469 179.980469 C 597.460938 187.5 590.039063 192.480469 582.519531 200 C 584.960938 202.539063 590.039063 202.539063 595.019531 202.539063 C 587.5 209.960938 575 215.039063 565.039063 220.019531 C 567.480469 225 572.460938 222.460938 575 222.460938 C 567.480469 227.539063 554.980469 232.519531 545.019531 234.960938 C 547.460938 237.5 550 240.039063 554.980469 240.039063 C 542.480469 247.460938 525 242.480469 520.019531 247.460938 C 520.019531 250 525 252.539063 527.539063 254.980469 C 507.519531 254.980469 454.980469 254.980469 445.019531 215.039063 C 465.039063 192.480469 500 167.480469 562.5 134.960938 C 515.039063 152.539063 470.019531 172.460938 434.960938 202.539063 C 395.019531 182.519531 422.460938 132.519531 445.019531 112.5 Z M 400 257.519531 C 429.980469 257.519531 467.480469 279.980469 467.480469 302.539093 C 467.480469 322.460968 440.039063 337.5 400 337.5 C 359.960968 337.5 332.519531 317.480469 332.519531 300 C 332.519531 282.519531 365.039093 257.519531 400 257.519531 Z M 247.460968 242.480469 C 252.539093 242.480469 254.980469 240.039063 257.519531 237.5 C 245.019531 232.519531 232.519531 229.980469 225 222.460938 C 229.980469 222.460938 232.519531 222.460938 237.5 220.019531 C 227.539093 215.039063 217.480469 209.960938 207.519531 202.539063 C 212.5 202.539063 217.480469 202.539063 220.019531 200 C 212.5 195.019531 204.980469 187.5 197.460953 182.519531 C 204.980469 182.519531 207.519531 182.519531 209.960968 182.519531 C 202.539093 172.460938 195.019516 167.480469 190.039078 157.519531 C 195.019516 159.960938 200 159.960938 204.980469 157.519531 C 202.539093 152.539063 190.039078 150 184.960953 137.5 C 190.039078 137.5 197.460953 137.5 197.460953 137.5 C 195.019516 127.539063 190.039078 120.019531 187.5 115.039063 C 200 115.039063 217.480469 115.039063 217.480469 115.039063 L 209.960968 104.980469 C 222.460968 102.539063 234.960968 104.980469 242.480469 107.519531 C 247.460968 104.980469 242.480469 100 237.5 97.460938 C 247.460968 100 257.519531 102.539063 265.039093 104.980469 C 270.019531 100 262.5 97.460938 257.519531 92.480469 C 275 95.019531 279.980469 100 287.5 104.980469 C 292.480469 100 287.5 97.460938 284.960968 92.480469 C 297.460968 97.460938 302.539093 102.539063 309.960968 107.519531 C 312.5 104.980469 315.039093 102.539063 312.5 95.019531 C 317.480469 100 325 104.980469 329.980469 112.5 C 334.960968 109.960938 332.519531 104.980469 332.519531 100 C 340.039093 107.519531 347.460968 115.039063 352.539093 122.460938 C 354.980469 122.460938 354.980469 117.480469 354.980469 112.5 C 375 132.519531 404.980469 182.519531 362.5 202.539063 C 327.539093 172.460938 282.519531 150 234.960968 134.960938 C 297.460968 167.480469 332.519531 192.480469 352.539093 215.039063 C 342.480469 254.980469 290.039093 257.519531 270.019531 254.980469 C 275 252.539063 277.539093 250 277.539093 247.460938 C 275 245.019531 259.960968 247.460938 247.460968 242.480469 Z M 317.480469 272.460938 C 337.5 275 217.480469 382.519531 215.039093 357.519531 C 212.5 297.460968 259.960968 262.5 317.480469 272.460938 Z M 190.039078 509.960938 C 159.960953 484.960938 150 417.480469 204.980469 384.960968 C 237.5 375 217.480469 520.019531 190.039078 509.960938 Z M 304.980469 634.960938 C 287.5 645.019531 247.460968 640.039063 220.019531 600 C 200 565.039063 202.539093 529.980469 217.480469 520.019531 C 237.5 507.519531 270.019531 525 292.480469 552.539063 C 312.5 575 322.460968 620.019531 304.980469 634.960938 Z M 272.460968 482.519531 C 242.480469 462.5 237.5 417.480469 259.960968 379.980469 C 284.960968 345.019531 327.539093 329.980469 357.519531 350 C 387.5 370.019531 392.480469 415.039063 370.019531 452.539063 C 347.460968 490.039063 302.539093 502.539063 272.460968 482.519531 Z M 400 704.980469 C 362.5 707.519531 327.539093 675 327.539093 665.039063 C 327.539093 650 372.460968 637.5 402.539063 637.5 C 432.519531 634.960938 472.460938 647.460938 472.460938 662.5 C 472.460938 672.460938 434.960938 704.980469 400 704.980469 Z M 475 545.019531 C 475 582.519531 442.480469 612.5 402.539063 612.5 C 362.5 612.5 327.539093 582.519531 327.539093 545.019531 C 327.539093 507.519531 359.960968 477.539063 400 477.539063 C 442.480469 477.539063 475 507.519531 475 545.019531 Z M 429.980469 450 C 404.980469 415.039063 412.5 367.480469 442.480469 347.460968 C 472.460938 327.539093 517.480469 340.039093 540.039063 377.539093 C 562.5 415.039063 557.519531 459.960938 527.539063 479.980469 C 497.460938 497.460938 452.539063 484.960938 429.980469 450 Z M 579.980469 600 C 547.460938 645.019531 504.980469 645.019531 490.039063 632.519531 C 472.460938 617.480469 484.960938 567.480469 509.960938 540.039063 C 534.960938 509.960938 565.039063 490.039063 582.519531 504.980469 C 595.019531 522.460938 602.539063 570.019531 579.980469 600 Z M 602.539063 507.519531 C 575 520.019531 552.539063 375 587.5 382.519531 C 642.480469 412.5 632.519531 482.519531 602.539063 507.519531 Z"/>
</svg>
