<?xml version="1.0" encoding="UTF-8"?>
<!-- Generated by Pixelmator Pro 3.7.1 -->
<svg width="111" height="119" viewBox="0 0 111 119" xmlns="http://www.w3.org/2000/svg">
    <path id="path1948" fill="#ffffff" stroke="none" d="M 54.918785 -0.667191 C 50.335133 -0.645889 45.957848 -0.254974 42.106285 0.426559 C 30.760069 2.431061 28.700035 6.626663 28.700035 14.364059 L 28.700035 24.582809 L 55.512535 24.582809 L 55.512535 27.989059 L 28.700035 27.989059 L 18.637535 27.989059 C 10.845076 27.989059 4.021776 32.672775 1.887535 41.582809 C -0.574285 51.795776 -0.68348 58.168831 1.887535 68.832809 C 3.793463 76.770668 8.345078 82.426559 16.137535 82.426559 L 25.356285 82.426559 L 25.356285 70.176559 C 25.356285 61.32666 33.013428 53.520309 42.106285 53.520309 L 68.887535 53.520309 C 76.342484 53.520309 82.293785 47.382149 82.293785 39.895309 L 82.293785 14.364059 C 82.293785 7.097725 76.163803 1.639282 68.887535 0.426559 C 64.281548 -0.340164 59.502438 -0.688492 54.918785 -0.667191 Z M 40.418785 7.551559 C 43.188332 7.551559 45.450035 9.850212 45.450035 12.676559 C 45.450031 15.492897 43.188332 17.770309 40.418785 17.770309 C 37.639309 17.770309 35.387535 15.492897 35.387535 12.676559 C 35.387535 9.850212 37.639309 7.551559 40.418785 7.551559 Z"/>
    <path id="path1950" fill="#ffffff" stroke="none" d="M 85.637535 27.989059 L 85.637535 39.895309 C 85.637535 49.126068 77.811638 56.895309 68.887535 56.895309 L 42.106285 56.895309 C 34.770451 56.895309 28.700035 63.173798 28.700035 70.520309 L 28.700035 96.051559 C 28.700035 103.317902 35.018623 107.591881 42.106285 109.676567 C 50.593616 112.172173 58.732521 112.623192 68.887535 109.676567 C 75.637688 107.722176 82.293785 103.788956 82.293785 96.051559 L 82.293785 85.832809 L 55.512535 85.832809 L 55.512535 82.426559 L 82.293785 82.426559 L 95.700043 82.426559 C 103.4925 82.426559 106.396294 76.991158 109.106277 68.832809 C 111.905609 60.433922 111.786499 52.357033 109.106277 41.582809 C 107.180496 33.825371 103.502411 27.989059 95.700043 27.989059 Z M 70.575035 92.645309 C 73.354515 92.645317 75.606285 94.922729 75.606285 97.739059 C 75.606285 100.565414 73.354507 102.864067 70.575035 102.864067 C 67.805489 102.864067 65.543785 100.565414 65.543785 97.739059 C 65.543785 94.922729 67.805481 92.645309 70.575035 92.645309 Z"/>
</svg>
