<?xml version="1.0" encoding="UTF-8"?>
<!-- Generated by Pixelmator Pro 3.7.1 -->
<svg width="1543" height="744" viewBox="0 0 1543 744" xmlns="http://www.w3.org/2000/svg">
    <g id="Layer-1">
        <g id="Group">
            <path id="Path" fill="#ffffff" stroke="none" d="M 219.999023 218.870422 L 257.884766 218.870422 L 257.884766 18.608154 L 219.999023 18.608154 L 219.999023 218.870422 Z"/>
            <path id="path1" fill="#ffffff" stroke="none" d="M 337.868225 156.929443 C 337.868225 176.476379 346.285828 187.901306 372.74646 187.901306 C 382.970032 187.901306 393.501038 187.001465 403.718353 185.497925 L 403.718353 124.756287 L 439.502899 124.756287 L 439.502899 212.858582 C 418.458313 218.872986 393.501038 221.880127 372.444641 221.880127 C 323.436005 221.880127 299.976196 201.131653 299.976196 161.440308 L 299.976196 76.03717 C 299.976196 34.848328 324.039703 15.597351 376.055817 15.597351 C 392.293243 15.597351 415.445282 17.402954 433.494568 22.215637 L 429.279327 55.294739 C 410.934448 51.381897 392.595459 49.878174 373.048676 49.878174 C 346.587677 49.878174 337.868225 60.705261 337.868225 81.151855 L 337.868225 156.929443 Z"/>
            <path id="path2" fill="#ffffff" stroke="none" d="M 519.486694 218.870422 L 481.594696 218.870422 L 481.594696 18.608154 L 519.486694 18.608154 L 519.486694 218.870422 Z"/>
            <path id="path3" fill="#ffffff" stroke="none" d="M 569.433655 157.398071 L 569.433655 18.101013 L 708.730774 18.101013 L 569.433655 157.398071 Z"/>
            <path id="path4" fill="#ffffff" stroke="none" d="M 111.462616 18.607056 L 36.886379 18.607056 L 36.886379 52.121033 L 107.549583 51.982117 C 133.110565 51.982117 140.024811 62.205322 140.024811 81.450256 L 140.024811 156.026306 C 140.024811 175.270996 133.110565 185.494385 107.549583 185.494385 L 74.772125 185.494385 L 74.772125 70.882751 L 36.886379 108.774597 L 36.886379 218.869324 L 111.462616 218.869324 C 160.779358 218.869324 177.916443 193.616272 177.916443 165.047791 L 177.916443 72.428711 C 177.916443 43.564514 160.779358 18.607056 111.462616 18.607056"/>
            <g id="g1">
                <path id="path5" fill="#ffffff" stroke="none" d="M 390.577881 497.251282 L 566.192017 321.635284 L 435.713165 321.635284 L 325.33847 432.009979 L 390.577881 497.251282 Z"/>
                <path id="path6" fill="#ffffff" stroke="none" d="M 366.204102 521.637756 L 366.196472 521.630493 L 366.199677 521.626526 L 366.192841 521.626526 L 166.202209 321.635406 L 35.723591 321.635406 L 235.71904 521.630493 L 35.723591 721.62561 L 166.202209 721.62561 L 366.180359 521.645752 L 366.204102 521.637756 Z"/>
                <path id="path7" fill="#ffffff" stroke="none" d="M 390.582092 546.016907 L 325.34314 611.254395 L 435.713165 721.625427 L 566.192017 721.625427 L 390.582092 546.016907 Z"/>
                <path id="path8" fill="#ffffff" stroke="none" d="M 1016.562744 411.773682 C 943.812683 411.773682 888.952393 445.5383 888.952393 490.311035 L 888.952393 646.278564 C 888.952393 691.05127 943.812683 724.812683 1016.562744 724.812683 C 1054.537476 724.812683 1124.654541 710.769287 1144.153687 706.700806 L 1144.025024 662.761719 C 1117.766479 667.779785 1048.061401 680.497009 1016.562744 680.497009 C 963.994202 680.497009 935.630615 656.884277 935.630615 634.665344 L 935.630615 597.137939 L 1144.173096 597.137939 L 1144.173096 490.311035 C 1144.173096 445.5383 1089.312744 411.773682 1016.562744 411.773682 Z M 1097.494751 552.822266 L 935.630615 552.822266 L 935.630615 498.155121 C 935.630615 477.841614 968.152832 456.089355 1016.562744 456.089355 C 1064.972656 456.089355 1097.494751 477.841614 1097.494751 498.155121 L 1097.494751 552.822266 Z"/>
                <path id="path9" fill="#ffffff" stroke="none" d="M 1309.906128 411.773682 C 1237.156128 411.773682 1182.295898 445.5383 1182.295898 490.311035 L 1182.295898 646.278564 C 1182.295898 691.05127 1237.156128 724.812683 1309.906128 724.812683 C 1347.880981 724.812683 1417.998047 710.769287 1437.497192 706.700806 L 1437.368408 662.761719 C 1411.109863 667.779785 1341.404907 680.497009 1309.906128 680.497009 C 1257.337646 680.497009 1228.973999 656.884277 1228.973999 634.665344 L 1228.973999 597.137939 L 1437.516479 597.137939 L 1437.516479 490.311035 C 1437.516479 445.5383 1382.65625 411.773682 1309.906128 411.773682 Z M 1390.838257 552.822266 L 1228.973999 552.822266 L 1228.973999 498.155121 C 1228.973999 477.841614 1261.496216 456.089355 1309.906128 456.089355 C 1358.31604 456.089355 1390.838257 477.841614 1390.838257 498.155121 L 1390.838257 552.822266 Z"/>
                <path id="path10" fill="#ffffff" stroke="none" d="M 587.066406 721.751648 L 764.192383 721.751648 C 817.802307 721.751648 858.226013 673.03125 858.226013 608.427368 C 858.226013 566.706116 841.071411 529.980103 812.341614 510.190857 L 804.840576 505.023987 L 809.079773 496.955078 C 818.673889 478.707672 823.745056 457.148773 823.745056 434.612701 C 823.745056 370.008728 783.321289 321.28833 729.718018 321.28833 L 587.066406 321.28833 L 587.066406 721.751648 Z M 764.192383 673.047791 L 635.770264 673.047791 L 635.770264 543.81012 L 764.192383 543.81012 C 790.459167 543.81012 809.522095 570.984863 809.522095 608.424011 C 809.522095 645.869751 790.459167 673.047791 764.192383 673.047791 Z M 729.718018 499.229858 L 635.770264 499.229858 L 635.770264 369.995544 L 729.718018 369.995544 C 755.978271 369.995544 775.041138 397.170258 775.041138 434.612701 C 775.041138 472.055084 755.978271 499.229858 729.718018 499.229858 Z"/>
                <g id="g2">
                    <path id="path11" fill="#ffffff" stroke="none" d="M 1461.012207 686.189392 C 1461.012207 671.994568 1471.327393 662.288757 1483.821411 662.288757 C 1496.437988 662.288757 1506.748779 671.994568 1506.748779 686.189392 C 1506.748779 700.379883 1496.437988 710.085693 1483.821411 710.085693 C 1471.327393 710.085693 1461.012207 700.379883 1461.012207 686.189392 Z M 1501.895874 686.189392 C 1501.895874 674.782715 1494.009399 666.655151 1483.821411 666.655151 C 1473.629028 666.655151 1465.865234 674.782715 1465.865234 686.189392 C 1465.865234 697.710205 1473.629028 705.59668 1483.821411 705.59668 C 1494.009399 705.59668 1501.895874 697.710205 1501.895874 686.189392 Z M 1475.084473 673.572693 L 1484.303711 673.572693 C 1489.401855 673.572693 1493.768311 675.633118 1493.768311 681.454956 C 1493.768311 684.365845 1491.948975 687.158203 1489.279175 688.127075 L 1494.859863 698.196777 L 1489.279175 698.196777 L 1485.031372 689.705261 L 1480.060059 689.705261 L 1480.060059 698.196777 L 1475.084473 698.196777 L 1475.084473 673.572693 Z M 1483.212036 685.8255 C 1486.490967 685.8255 1488.428833 684.365845 1488.428833 681.700378 C 1488.428833 679.27179 1487.096069 677.697876 1483.457397 677.697876 L 1480.060059 677.697876 L 1480.060059 685.8255 L 1483.212036 685.8255 Z"/>
                </g>
            </g>
        </g>
        <g id="g3">
            <path id="path12" fill="#4d4e53" stroke="none" d="M 532.976868 203.048767 C 532.976868 193.626587 539.82373 187.184143 548.116943 187.184143 C 556.491516 187.184143 563.335632 193.626587 563.335632 203.048767 C 563.335632 212.46814 556.491516 218.910583 548.116943 218.910583 C 539.82373 218.910583 532.976868 212.46814 532.976868 203.048767 Z M 560.11438 203.048767 C 560.11438 195.477356 554.879517 190.082397 548.116943 190.082397 C 541.351501 190.082397 536.19812 195.477356 536.19812 203.048767 C 536.19812 210.695984 541.351501 215.930847 548.116943 215.930847 C 554.879517 215.930847 560.11438 210.695984 560.11438 203.048767 Z M 542.317566 194.674133 L 548.437073 194.674133 C 551.821228 194.674133 554.719482 196.041809 554.719482 199.906128 C 554.719482 201.838318 553.511902 203.691833 551.739746 204.334961 L 555.444031 211.018982 L 551.739746 211.018982 L 548.920105 205.382507 L 545.6203 205.382507 L 545.6203 211.018982 L 542.317566 211.018982 L 542.317566 194.674133 Z M 547.712524 202.807251 C 549.888977 202.807251 551.175232 201.838318 551.175232 200.069031 C 551.175232 198.457031 550.290588 197.412292 547.875427 197.412292 L 545.6203 197.412292 L 545.6203 202.807251 L 547.712524 202.807251 Z"/>
        </g>
    </g>
</svg>
