<?xml version="1.0" encoding="UTF-8"?>
<!-- Generated by Pixelmator Pro 3.7.1 -->
<svg width="2355" height="2355" viewBox="0 0 2355 2355" xmlns="http://www.w3.org/2000/svg">
    <g id="Layer-1">
        <g id="Group">
            <path id="Path" fill="#fffffe" stroke="none" d="M 1912.315308 838.74231 L 425.981323 838.74231 C 229.085205 838.74231 69.469635 998.358154 69.469635 1195.254028 L 69.469635 1195.254761 C 69.469635 1392.150635 229.085205 1551.766479 425.981323 1551.766479 L 536.233948 1551.766479 L 536.233948 1351.184814 C 508.117371 1389.173828 466.328125 1409.69043 414.662598 1409.69043 C 299.17926 1409.69043 223.201172 1324.595947 223.201172 1196.952271 C 223.201172 1071.588867 298.415558 988.774292 411.622559 988.774292 C 464.815979 988.774292 507.361023 1010.047119 536.233948 1047.276001 L 536.233948 993.334473 L 671.469788 993.334473 L 671.469788 1551.766479 L 1912.315308 1551.766479 C 2109.211426 1551.766479 2268.826904 1392.150635 2268.826904 1195.254761 L 2268.826904 1195.254028 C 2268.826904 998.358154 2109.211426 838.74231 1912.315308 838.74231 Z M 1267.126953 1404.370361 L 1133.403198 1404.370361 L 1055.149048 1150.607056 L 976.130859 1404.370361 L 842.414795 1404.370361 L 692.73468 993.334473 L 830.254517 993.334473 L 912.305176 1271.4104 L 992.843262 993.334473 L 1122.006958 993.334473 L 1203.301147 1271.4104 L 1285.359375 993.334473 L 1417.55542 993.334473 L 1267.126953 1404.370361 Z M 1567.219971 1404.370361 L 1432.740234 1404.370361 L 1432.740234 993.334473 L 1567.219971 993.334473 L 1567.219971 1404.370361 Z M 1729.037109 1404.370361 L 1594.557373 1404.370361 L 1594.557373 993.334473 L 1729.037109 993.334473 L 1729.037109 1404.370361 Z M 1992.372803 1102.685303 C 1985.701416 1101.31958 1978.759277 1100.461548 1971.400146 1100.461548 C 1922.774658 1100.461548 1889.341919 1140.730835 1889.341919 1199.99231 C 1889.341919 1260.014038 1922.774658 1299.523193 1971.400146 1299.523193 C 1978.754395 1299.523193 1985.696777 1298.749756 1992.372803 1297.498779 L 1992.372803 1407.587646 C 1983.343506 1408.427979 1974.099609 1408.930176 1964.563965 1408.930176 C 1837.676392 1408.930176 1753.342163 1326.112061 1753.342163 1200.752441 C 1753.342163 1073.108887 1838.44043 988.774292 1966.076416 988.774292 C 1975.067139 988.774292 1983.809326 989.274048 1992.372803 990.103149 L 1992.372803 1102.685303 Z"/>
            <path id="path1" fill="#fffffe" stroke="none" d="M 448.095642 1098.181641 C 394.910095 1098.181641 359.200989 1139.970581 359.200989 1200.752441 C 359.200989 1261.53418 394.910095 1303.31958 448.095642 1303.31958 C 500.524841 1303.31958 536.233948 1261.53418 536.233948 1200.752441 C 536.233948 1139.210693 500.524841 1098.181641 448.095642 1098.181641 Z"/>
        </g>
        <g id="g1">
            <path id="path2" fill="#fffffe" stroke="none" d="M 2320.807129 1481.787354 C 2320.807129 1518.664795 2291.107422 1549.756104 2253.037598 1549.756104 C 2215.16748 1549.756104 2185.870605 1519.063599 2185.870605 1482.186157 C 2185.870605 1445.312744 2215.366699 1414.221436 2253.436523 1414.221436 C 2291.306641 1414.221436 2320.807129 1444.7146 2320.807129 1481.787354 Z M 2306.455566 1481.787354 C 2306.455566 1452.889282 2283.335449 1429.171021 2253.436523 1429.171021 C 2223.342041 1429.171021 2200.217773 1453.288086 2200.217773 1482.186157 C 2200.217773 1511.088379 2223.142578 1534.806641 2253.037598 1534.806641 C 2283.335449 1534.806641 2306.455566 1510.689575 2306.455566 1481.787354 Z M 2269.582275 1490.759521 L 2283.734375 1512.284668 L 2267.189697 1512.284668 L 2256.825928 1493.550903 L 2255.230957 1493.550903 L 2242.075684 1493.550903 L 2242.075684 1512.284668 L 2227.724365 1512.284668 L 2227.724365 1447.505981 L 2255.230957 1447.505981 C 2272.373535 1447.505981 2281.939941 1455.680664 2281.939941 1469.828613 C 2281.939941 1479.99707 2277.553467 1487.170654 2269.582275 1490.759521 Z M 2242.075684 1481.986816 L 2255.230957 1481.986816 C 2263.405518 1481.986816 2268.186523 1477.803833 2268.186523 1470.426758 C 2268.186523 1463.053711 2263.405518 1459.06604 2255.230957 1459.06604 L 2242.075684 1459.06604 L 2242.075684 1481.986816 Z"/>
        </g>
    </g>
</svg>
