<?xml version="1.0" encoding="UTF-8"?>
<!-- Generated by Pixelmator Pro 3.7.1 -->
<svg width="252" height="165" viewBox="0 0 252 165" xmlns="http://www.w3.org/2000/svg">
    <g id="g1093">
        <g id="g1074">
            <path id="polyline4" fill="#ffffff" stroke="none" d="M -2 110.100006 L -2 34.899994 L 16.799999 34.899994 L 16.799999 94.299995 L 46.200001 94.299995 L 46.200001 110.100006 L -2 110.100006"/>
            <path id="path6" fill="#ffffff" stroke="none" d="M 141.800003 48.799995 L 141.800003 69.099998 L 159 69.099998 C 165.699997 69.099998 169.100006 65.699997 169.100006 59 C 169.100006 52.199997 165.800003 48.900002 159 48.900002 L 141.800003 48.900002 Z M 123 110.100006 L 123 34.899994 L 160.600006 34.899994 C 178.800003 34.899994 187.899994 43.099998 187.899994 59.599998 C 187.899994 64.5 186.5 68.699997 183.699997 72.299995 C 180.899994 75.899994 177.100006 78.5 172.399994 79.899994 L 189.600006 110.100006 L 168.600006 110.100006 L 153.800003 83 L 141.800003 83 L 141.800003 110.100006 L 123 110.100006"/>
            <path id="path8" fill="#ffffff" stroke="none" d="M 230.399994 86.699997 L 230.399994 82.799995 L 219.300003 86 C 214 87.5 211.399994 89.899994 211.399994 93.299995 C 211.399994 97.5 214 99.599998 219.100006 99.599998 C 222.5 99.599998 225.199997 98.5 227.300003 96.299995 C 229.300003 94 230.399994 90.799995 230.399994 86.699997 M 246.199997 68.699997 L 246.199997 98.399994 C 246.199997 103.699997 246.699997 107.600006 247.699997 110.100006 L 232.5 110.100006 C 231.899994 108.300003 231.600006 106.399994 231.5 104.300003 L 231.300003 104.300003 C 230 106.399994 227.5 108.199997 224 109.600006 C 220.800003 110.899994 217.600006 111.600006 214.399994 111.600006 C 208.800003 111.600006 204.399994 110.199997 201 107.300003 C 197.399994 104.300003 195.600006 100.099998 195.600006 94.899994 C 195.600006 88.5 198.199997 83.599998 203.300003 80.299995 C 207.699997 77.5 214.699997 75.399994 224.399994 74.099998 L 230.399994 73.299995 L 230.399994 68.599998 C 230.399994 64.599998 227.800003 62.599998 222.600006 62.599998 C 219.899994 62.599998 217.899994 63.199997 216.600006 64.299995 C 215.300003 65.399994 214.399994 67.399994 214 70.099998 L 198 70.099998 C 198.300003 58.299995 206.100006 52.5 221.199997 52.5 C 229.399994 52.5 235.5 53.599998 239.5 55.900002 C 244 58.400002 246.199997 62.699997 246.199997 68.699997"/>
            <path id="path10" fill="#ffffff" stroke="none" d="M 82 65 C 77.5 65 74.099998 66.599998 71.800003 69.899994 C 69.699997 72.899994 68.599998 76.899994 68.599998 82 C 68.599998 87.099998 69.699997 91.099998 71.800003 94.099998 C 74.099998 97.399994 77.5 99 82 99 C 91 99 95.400002 93.099998 95.400002 81.299995 C 95.400002 76.5 94.300003 72.599998 92.199997 69.699997 C 89.900002 66.599998 86.5 65 82 65 M 82 52.400002 C 91 52.400002 98.199997 55 103.699997 60.199997 C 109.199997 65.399994 111.900002 72.699997 111.900002 82 C 111.900002 91.299995 109.199997 98.599998 103.699997 103.800003 C 98.199997 109 91 111.600006 82 111.600006 C 73 111.600006 65.800003 109 60.299999 103.800003 C 54.799999 98.599998 52.099998 91.299995 52.099998 82 C 52.099998 72.699997 54.799999 65.399994 60.299999 60.199997 C 65.900002 55 73.099998 52.400002 82 52.400002"/>
            <path id="path12" fill="#ffffff" stroke="none" d="M 81.5 41.199997 C 89.699997 41.199997 97.400002 43.599998 103.800003 47.799995 L 107 43.199997 C 99.599998 38.400002 90.900002 35.600006 81.5 35.600006 C 72.5 35.600006 64.099998 38.199997 56.900002 42.599998 L 60.099998 47.199997 C 66.400002 43.299995 73.699997 41.199997 81.5 41.199997"/>
            <path id="path14" fill="#ffffff" stroke="none" d="M 46.900002 28.199997 L 51.200001 34.300003 C 60 28.699997 70.400002 25.5 81.5 25.5 C 93.099998 25.5 103.800003 29 112.800003 34.899994 L 117.099998 28.800003 C 106.900002 22 94.599998 18 81.5 18 C 68.800003 18 56.900002 21.800003 46.900002 28.199997"/>
            <path id="path16" fill="#ffffff" stroke="none" d="M 81.5 9.5 C 96.5 9.5 110.400002 14 122.099998 21.800003 L 127.5 14.100006 C 114.400002 5.199997 98.5 0.100006 81.5 0.100006 C 65 0.100006 49.5 5 36.599998 13.399994 L 42 21.100006 C 53.400002 13.800003 66.900002 9.5 81.5 9.5"/>
            <path id="path18" fill="#ffffff" stroke="none" d="M 82.599998 123 C 74.400002 123 66.699997 120.600006 60.299999 116.399994 L 57.099998 121 C 64.5 125.800003 73.199997 128.599991 82.699997 128.599991 C 91.699997 128.599991 100.099998 126 107.300003 121.600006 L 104.099998 117 C 97.699997 120.899994 90.400002 123 82.599998 123"/>
            <path id="path20" fill="#ffffff" stroke="none" d="M 117.199997 136 L 112.900002 129.899994 C 104.099998 135.5 93.699997 138.699997 82.599998 138.699997 C 71 138.699997 60.299999 135.199997 51.299999 129.300003 L 47 135.399994 C 57.200001 142.199997 69.400002 146.199997 82.599998 146.199997 C 95.300003 146.199997 107.199997 142.399994 117.199997 136"/>
            <path id="path22" fill="#ffffff" stroke="none" d="M 82.599998 154.699997 C 67.599998 154.699997 53.700001 150.199997 42 142.399994 L 36.599998 150.099991 C 49.700001 158.899994 65.599998 164.099991 82.599998 164.099991 C 99.099998 164.099991 114.599998 159.199997 127.5 150.800003 L 122.099998 143.099991 C 110.699997 150.399994 97.099998 154.699997 82.599998 154.699997"/>
        </g>
    </g>
</svg>
